<svg width="18" height="18" viewBox="0 0 18 18" fill="none" xmlns="http://www.w3.org/2000/svg">
<g id="akar-icons:twitter-fill">
<path id="Vector" d="M17.7321 3.70269C17.1059 3.98019 16.4331 4.16769 15.7259 4.25244C16.4556 3.81578 17.0016 3.12854 17.2619 2.31894C16.5763 2.72618 15.8259 3.01283 15.0434 3.16644C14.5172 2.60458 13.8202 2.23218 13.0606 2.10704C12.3011 1.9819 11.5215 2.11103 10.8428 2.47438C10.1642 2.83772 9.62447 3.41496 9.3075 4.11646C8.99054 4.81797 8.91404 5.6045 9.08989 6.35394C7.70065 6.28418 6.34161 5.9231 5.10096 5.29411C3.8603 4.66513 2.76577 3.78231 1.88839 2.70294C1.58839 3.22044 1.41589 3.82044 1.41589 4.45944C1.41555 5.03468 1.55721 5.60112 1.8283 6.10848C2.09938 6.61585 2.49151 7.04846 2.96989 7.36794C2.41509 7.35028 1.87254 7.20037 1.38739 6.93069V6.97569C1.38733 7.78249 1.66641 8.56447 2.17727 9.18893C2.68814 9.8134 3.39932 10.2419 4.19014 10.4017C3.67547 10.541 3.13589 10.5615 2.61214 10.4617C2.83526 11.1559 3.26988 11.763 3.85516 12.1979C4.44044 12.6328 5.14707 12.8738 5.87614 12.8872C4.63851 13.8587 3.11005 14.3858 1.53664 14.3834C1.25792 14.3835 0.979444 14.3672 0.702637 14.3347C2.29974 15.3616 4.15889 15.9066 6.05764 15.9044C12.4851 15.9044 15.9989 10.5809 15.9989 5.96394C15.9989 5.81394 15.9951 5.66244 15.9884 5.51244C16.6719 5.01817 17.2618 4.40611 17.7306 3.70494L17.7321 3.70269Z" fill="white" fill-opacity="0.6"/>
</g>
</svg>
